KRSPY-parametric-WideBlackMinGrade-maxXOPQminYOPQminXTRA.ufo
<glyph name="comma" format="2">
  <advance width="411"/>
  <unicode hex="002C"/>
  <outline>
    <contour>
      <point x="164" y="-22" type="line"/>
      <point x="375" y="0" type="line"/>
      <point x="375" y="2" type="line"/>
      <point x="-271" y="2" type="line"/>
      <point x="-355" y="2" type="line"/>
      <point x="-355" y="0" type="line"/>
      <point x="58" y="0" type="line"/>
      <point x="58" y="-22" type="line"/>
    </contour>
  </outline>
</glyph>
<glyph name="period" format="2">
  <advance width="672"/>
  <unicode hex="002E"/>
  <outline>
    <contour>
      <point x="550" y="0" type="line" identifier="1m237t4hyw"/>
      <point x="635" y="0" type="line" identifier="v7N4yg5XNk"/>
      <point x="635" y="3" type="line"/>
      <point x="210" y="3" type="line" identifier="zfocDyDTCM"/>
      <point x="124" y="2" type="line"/>
      <point x="124" y="0" type="line" identifier="S4rO5KuHiL"/>
    </contour>
  </outline>
</glyph>
<glyph name="one" format="2">
  <advance width="986"/>
  <unicode hex="0031"/>
  <outline>
    <contour>
      <point x="24" y="0" type="line"/>
      <point x="963" y="0" type="line" identifier="CURJAw79Zl"/>
      <point x="963" y="2" type="line" identifier="0DUCJo8xIi"/>
      <point x="858" y="2" type="line" identifier="5nmxQXofSG"/>
      <point x="858" y="1600" type="line" identifier="4rjIeWbSbx"/>
      <point x="27" y="1600" type="line"/>
      <point x="27" y="1598" type="line"/>
      <point x="128" y="1598" type="line"/>
      <point x="128" y="2" type="line"/>
      <point x="24" y="2" type="line"/>
    </contour>
  </outline>
</glyph>
<glyph name="four" format="2">
  <advance width="1880"/>
  <unicode hex="0034"/>
  <outline>
    <contour>
      <point x="934" y="0" type="line"/>
      <point x="1664" y="0" type="line"/>
      <point x="1664" y="812" type="line"/>
      <point x="1770" y="812" type="line"/>
      <point x="1770" y="814" type="line"/>
      <point x="1664" y="814" type="line"/>
      <point x="1664" y="1600" type="line"/>
      <point x="934" y="1600" type="line"/>
      <point x="934" y="814" type="line"/>
      <point x="841" y="814" type="line"/>
      <point x="841" y="895" type="line"/>
      <point x="928" y="1680" type="line"/>
      <point x="215" y="1680" type="line"/>
      <point x="111" y="894" type="line"/>
      <point x="111" y="812" type="line"/>
      <point x="934" y="812" type="line"/>
    </contour>
  </outline>
</glyph>
<glyph name="seven" format="2">
  <advance width="1618"/>
  <unicode hex="0037"/>
  <outline>
    <contour>
      <point x="476" y="0" type="line"/>
      <point x="1206" y="0" type="line" identifier="PiPrv7Kcoy"/>
      <point x="1594" y="1322" type="line" identifier="PkvwNC9Tx1"/>
      <point x="1594" y="1600" type="line" identifier="tgqM27bPOm"/>
      <point x="24" y="1600" type="line" identifier="36ml4xRICt"/>
      <point x="24" y="1200" type="line" identifier="aaDZsh5Mah"/>
      <point x="754" y="1200" type="line"/>
      <point x="754" y="1598" type="line"/>
      <point x="864" y="1598" type="line"/>
      <point x="864" y="1412" type="line"/>
    </contour>
  </outline>
</glyph>
<glyph name="B" format="2">
  <advance width="1664"/>
  <unicode hex="0042"/>
  <outline>
    <contour>
      <point x="55" y="0" type="line" identifier="hvY9r8RmLr"/>
      <point x="1628" y="0" type="line" identifier="9QFpw7nfq7"/>
      <point x="1628" y="593" type="line" identifier="543PerILpr"/>
      <point x="1503" y="799" type="line" identifier="zhomauHW30"/>
      <point x="1503" y="801" type="line" identifier="870ZhtaozS"/>
      <point x="1624" y="1011" type="line" identifier="eGKH52Jgnk"/>
      <point x="1624" y="1600" type="line" identifier="FaP204GrdB"/>
      <point x="55" y="1600" type="line" identifier="JEev70GAj6"/>
    </contour>
    <contour>
      <point x="785" y="801" type="line" identifier="By7dfMihfe"/>
      <point x="785" y="1598" type="line" identifier="1p5hKrurVy"/>
      <point x="894" y="1598" type="line" identifier="Qby8aMtF2X"/>
      <point x="894" y="866" type="line" identifier="9lW01gQyU2"/>
      <point x="856" y="801" type="line" identifier="xpxyvIzPoc"/>
    </contour>
    <contour>
      <point x="785" y="2" type="line" identifier="jaMSiLrCua"/>
      <point x="785" y="799" type="line" identifier="XSrxNd2axx"/>
      <point x="856" y="799" type="line" identifier="VyYlzRh5nq"/>
      <point x="898" y="742" type="line" identifier="lsRGatjQja"/>
      <point x="898" y="2" type="line" identifier="xhlDJ3CjD5"/>
    </contour>
  </outline>
</glyph>
<glyph name="R" format="2">
  <advance width="1666"/>
  <unicode hex="0052"/>
  <outline>
    <contour>
      <point x="785" y="801" type="line"/>
      <point x="785" y="1598" type="line"/>
      <point x="894" y="1598" type="line"/>
      <point x="894" y="868" type="line"/>
      <point x="856" y="801" type="line"/>
    </contour>
    <contour>
      <point x="1630" y="0" type="line"/>
      <point x="1503" y="801" type="line"/>
      <point x="1624" y="1012" type="line"/>
      <point x="1624" y="1600" type="line"/>
      <point x="55" y="1600" type="line"/>
      <point x="55" y="0" type="line"/>
      <point x="785" y="0" type="line"/>
      <point x="785" y="799" type="line"/>
      <point x="856" y="799" type="line"/>
      <point x="925" y="0" type="line"/>
    </contour>
  </outline>
</glyph>
<glyph name="S" format="2">
  <advance width="1548"/>
  <unicode hex="0053"/>
  <outline>
    <contour>
      <point x="24" y="0" type="line" identifier="09VlJ0BjUX"/>
      <point x="1524" y="0" type="line" identifier="EagWihqFM8"/>
      <point x="1524" y="801" type="line" identifier="KfNuQA7eZe"/>
      <point x="748" y="801" type="line" identifier="At364YZFEy"/>
      <point x="748" y="1278" type="line"/>
      <point x="813" y="1598" type="line"/>
      <point x="794" y="1598" type="line" identifier="3ZUkG35meB"/>
      <point x="794" y="1168" type="line" identifier="DTOJhFIl15"/>
      <point x="1524" y="1168" type="line" identifier="9KDcrfQ5Ui"/>
      <point x="1524" y="1600" type="line" identifier="SaF9ojRFrW"/>
      <point x="176" y="1600" type="line"/>
      <point x="26" y="1329" type="line"/>
      <point x="26" y="799" type="line" identifier="3sQ8t8BZ6b"/>
      <point x="793" y="799" type="line" identifier="yiV6OCBLHg"/>
      <point x="793" y="2" type="line" identifier="9kdl9SYsn8"/>
      <point x="754" y="2" type="line" identifier="yZDWuX8LLe"/>
      <point x="754" y="402" type="line" identifier="jYb9001DTm"/>
      <point x="24" y="402" type="line" identifier="ho4DrS0rdW"/>
    </contour>
  </outline>
</glyph>
<glyph name="U" format="2">
  <advance width="1799"/>
  <unicode hex="0055"/>
  <outline>
    <contour>
      <point x="946" y="1600" type="line" smooth="yes"/>
      <point x="946" y="2" type="line"/>
      <point x="938" y="2" type="line" smooth="yes"/>
      <point x="835" y="340" type="line" smooth="yes"/>
      <point x="835" y="1600" type="line"/>
      <point x="104" y="1600" type="line" smooth="yes"/>
      <point x="104" y="314" type="line" smooth="yes"/>
      <point x="335" y="0" type="line" smooth="yes"/>
      <point x="1676" y="0" type="line" smooth="yes"/>
      <point x="1676" y="1600" type="line" smooth="yes"/>
    </contour>
  </outline>
</glyph>
<glyph name="W" format="2">
  <advance width="2667"/>
  <unicode hex="0057"/>
  <outline>
    <contour>
      <point x="892" y="1600" type="line" smooth="yes" identifier="12Pyby1xY2"/>
      <point x="162" y="1600" type="line" smooth="yes" identifier="5LJg4ajoG6"/>
      <point x="162" y="0" type="line" smooth="yes" identifier="ZqTZqAY3uY"/>
      <point x="1186" y="0" type="line" smooth="yes" identifier="rCeQLyjlsN"/>
      <point x="1249" y="85" type="line"/>
      <point x="1262" y="85" type="line"/>
      <point x="1262" y="0" type="line" smooth="yes" identifier="Pkl7cZ37MU"/>
      <point x="2343" y="0" type="line" smooth="yes" identifier="R4lklfJsHA"/>
      <point x="2523" y="358" type="line" smooth="yes" identifier="7g7f8Wu7K4"/>
      <point x="2523" y="1600" type="line" smooth="yes" identifier="RTOJW56qXy"/>
      <point x="1793" y="1600" type="line" identifier="JfSFAkWGZC"/>
      <point x="1793" y="349" type="line" smooth="yes" identifier="WWvGwSpq0g"/>
      <point x="1713" y="2" type="line" smooth="yes" identifier="oee4nqI8Wl"/>
      <point x="1718" y="2" type="line" identifier="Ljn2lpvpG8"/>
      <point x="1718" y="367" type="line"/>
      <point x="1718" y="1600" type="line" smooth="yes"/>
      <point x="987" y="1600" type="line"/>
      <point x="987" y="352" type="line"/>
      <point x="987" y="332" type="line"/>
      <point x="903" y="2" type="line" identifier="GlWB6PG54Z"/>
      <point x="892" y="2" type="line" identifier="iqeTRv7HXg"/>
    </contour>
  </outline>
</glyph>
<glyph name="X" format="2">
  <advance width="1794"/>
  <unicode hex="0058"/>
  <outline>
    <contour>
      <point x="905" y="799" type="line"/>
      <point x="960" y="753" type="line"/>
      <point x="960" y="0" type="line"/>
      <point x="1690" y="0" type="line"/>
      <point x="1690" y="585" type="line"/>
      <point x="1552" y="799" type="line"/>
      <point x="1552" y="801" type="line"/>
      <point x="1686" y="1012" type="line"/>
      <point x="1686" y="1600" type="line"/>
      <point x="956" y="1600" type="line"/>
      <point x="956" y="844" type="line"/>
      <point x="905" y="801" type="line"/>
      <point x="888" y="801" type="line"/>
      <point x="838" y="844" type="line"/>
      <point x="838" y="1600" type="line"/>
      <point x="107" y="1600" type="line"/>
      <point x="107" y="1012" type="line"/>
      <point x="241" y="801" type="line"/>
      <point x="241" y="799" type="line"/>
      <point x="103" y="585" type="line"/>
      <point x="103" y="0" type="line"/>
      <point x="834" y="0" type="line"/>
      <point x="834" y="753" type="line"/>
      <point x="888" y="799" type="line"/>
    </contour>
  </outline>
</glyph>
<glyph name="B.narrow" format="2">
  <advance width="1799"/>
  <outline>
    <contour>
      <point x="123" y="0" type="line" identifier="hvY9r8RmLr"/>
      <point x="1695" y="0" type="line" identifier="9QFpw7nfq7"/>
      <point x="1695" y="678" type="line" identifier="543PerILpr"/>
      <point x="1532" y="892" type="line" identifier="870ZhtaozS"/>
      <point x="1691" y="985" type="line" identifier="eGKH52Jgnk"/>
      <point x="1691" y="1600" type="line" identifier="FaP204GrdB"/>
      <point x="123" y="1600" type="line" identifier="JEev70GAj6"/>
    </contour>
    <contour>
      <point x="853" y="735" type="line" identifier="By7dfMihfe"/>
      <point x="853" y="1598" type="line" identifier="1p5hKrurVy"/>
      <point x="962" y="1598" type="line" identifier="Qby8aMtF2X"/>
      <point x="962" y="788" type="line" identifier="9lW01gQyU2"/>
    </contour>
    <contour>
      <point x="853" y="2" type="line" identifier="jaMSiLrCua"/>
      <point x="853" y="733" type="line" identifier="XSrxNd2axx"/>
      <point x="926" y="766" type="line" identifier="VyYlzRh5nq"/>
      <point x="963" y="729" type="line" identifier="lsRGatjQja"/>
      <point x="963" y="2" type="line" identifier="xhlDJ3CjD5"/>
    </contour>
  </outline>
</glyph>
<glyph name="F.wide" format="2">
  <advance width="1586"/>
  <outline>
    <contour>
      <point x="114" y="0" type="line" identifier="oAgH2tA6DJ"/>
      <point x="844" y="0" type="line" identifier="zCZyMcW5ho"/>
      <point x="844" y="799" type="line" identifier="yHYqkMd7LI"/>
      <point x="1402" y="799" type="line" identifier="NmB7yyQuio"/>
      <point x="1402" y="801" type="line" identifier="wQk2C8zPHh"/>
      <point x="844" y="801" type="line" identifier="4cFHKQfHDt"/>
      <point x="844" y="1598" type="line" identifier="ZvzwyrcwpS"/>
      <point x="1504" y="1598" type="line" identifier="4E754ovOIe"/>
      <point x="1504" y="1600" type="line" identifier="NUrIjqOB7J"/>
      <point x="114" y="1600" type="line" identifier="TBAYuCfUFX"/>
    </contour>
  </outline>
</glyph>
<glyph name="G.wide" format="2">
  <advance width="1693"/>
  <outline>
    <contour>
      <point x="37" y="0" type="line" identifier="7lPhzTnk2Z"/>
      <point x="1607" y="0" type="line" identifier="qJVLZGnkwh"/>
      <point x="1607" y="767" type="line" identifier="uek1NNj7De"/>
      <point x="811" y="767" type="line" identifier="qcvimxjndX"/>
      <point x="811" y="765" type="line" identifier="EARaY3Su65"/>
      <point x="883" y="765" type="line" identifier="4m6dHLVhZq"/>
      <point x="883" y="2" type="line" identifier="Y750RHTvDj"/>
      <point x="767" y="2" type="line" identifier="L2LsGnXiZ2"/>
      <point x="767" y="1245" type="line" identifier="sUWsr03vF4"/>
      <point x="829" y="1598" type="line" identifier="dbOUe6OhxL"/>
      <point x="1607" y="1598" type="line" identifier="5BjRbcud80"/>
      <point x="1607" y="1600" type="line" identifier="9eJelv8BOw"/>
      <point x="124" y="1600" type="line" identifier="lfZev3ICaC"/>
      <point x="37" y="1263" type="line" identifier="V1EWIdPahq"/>
    </contour>
  </outline>
</glyph>
<glyph name="K.alt" format="2">
  <advance width="1761"/>
  <outline>
    <contour>
      <point x="826" y="0" type="line" identifier="wmNm7XZsaF"/>
      <point x="826" y="799" type="line" identifier="O22liaP9Qk"/>
      <point x="883" y="799" type="line" identifier="ELFBWIb1vd"/>
      <point x="938" y="743" type="line" identifier="DzXo67YEfw"/>
      <point x="938" y="0" type="line" identifier="aKpYWD78l2"/>
      <point x="1668" y="0" type="line" identifier="ChS7KlqGi6"/>
      <point x="1668" y="656" type="line" identifier="sWLgkU8Vey"/>
      <point x="1530" y="801" type="line" identifier="Of0iQc0wBG"/>
      <point x="1673" y="1600" type="line" identifier="dMJ1ywOKQQ"/>
      <point x="951" y="1600" type="line" identifier="08OWjR2YBJ"/>
      <point x="883" y="801" type="line" identifier="g4YLdZEoM3"/>
      <point x="826" y="801" type="line" identifier="uZuki3Isec"/>
      <point x="826" y="1600" type="line" identifier="nRfcNgqJ4H"/>
      <point x="95" y="1600" type="line" identifier="3XJlWt89ad"/>
      <point x="95" y="0" type="line" identifier="wdbO8kCovY"/>
    </contour>
  </outline>
</glyph>
<glyph name="K.narrow" format="2">
  <advance width="1798"/>
  <outline>
    <contour>
      <point x="852" y="0" type="line"/>
      <point x="852" y="811" type="line"/>
      <point x="918" y="898" type="line"/>
      <point x="999" y="0" type="line"/>
      <point x="1694" y="0" type="line"/>
      <point x="1549" y="850" type="line"/>
      <point x="1670" y="897" type="line"/>
      <point x="1670" y="1600" type="line"/>
      <point x="941" y="1600" type="line"/>
      <point x="941" y="930" type="line"/>
      <point x="852" y="813" type="line"/>
      <point x="852" y="1600" type="line"/>
      <point x="122" y="1600" type="line"/>
      <point x="122" y="0" type="line"/>
    </contour>
  </outline>
</glyph>
<glyph name="L.wide" format="2">
  <advance width="1439"/>
  <outline>
    <contour>
      <point x="126" y="0" type="line" identifier="XkJNfQlnnt"/>
      <point x="1363" y="0" type="line" identifier="82EXZEgt46"/>
      <point x="1363" y="2" type="line" identifier="cqpSxwFiM3"/>
      <point x="857" y="2" type="line" identifier="MbxRZRd8vz"/>
      <point x="857" y="1600" type="line" identifier="lYiaKSKITt"/>
      <point x="126" y="1600" type="line" identifier="XFf4mMUzYo"/>
    </contour>
  </outline>
</glyph>
<glyph name="N.narrow" format="2">
  <advance width="1802"/>
  <outline>
    <contour>
      <point x="123" y="0" type="line" smooth="yes"/>
      <point x="853" y="0" type="line"/>
      <point x="853" y="1295" type="line"/>
      <point x="940" y="1598" type="line"/>
      <point x="948" y="1598" type="line"/>
      <point x="948" y="0" type="line" smooth="yes"/>
      <point x="1679" y="0" type="line" smooth="yes"/>
      <point x="1679" y="1600" type="line" smooth="yes"/>
      <point x="909" y="1600" type="line" smooth="yes"/>
      <point x="861" y="1449" type="line"/>
      <point x="847" y="1449" type="line"/>
      <point x="847" y="1600" type="line"/>
      <point x="123" y="1600" type="line"/>
    </contour>
  </outline>
</glyph>
<glyph name="N.wide" format="2">
  <advance width="2358"/>
  <outline>
    <contour>
      <point x="165" y="0" type="line" identifier="CkwYPPvJLv"/>
      <point x="895" y="0" type="line" identifier="oHTJsN7drZ"/>
      <point x="895" y="1598" type="line" identifier="wfBbYd10Pm"/>
      <point x="905" y="1598" type="line" identifier="MEnBDHq6zU"/>
      <point x="1457" y="0" type="line" identifier="3Nbopwznvn"/>
      <point x="2192" y="0" type="line" identifier="uKfuudIUvA"/>
      <point x="2192" y="1600" type="line" identifier="XRdLFXiM4t"/>
      <point x="1462" y="1600" type="line" identifier="MUSJPjCIXg"/>
      <point x="1462" y="50" type="line" identifier="VILP20cFmq"/>
      <point x="1453" y="50" type="line" identifier="z5b04GDwRN"/>
      <point x="924" y="1600" type="line" identifier="LL64NQ6WBE"/>
      <point x="165" y="1600" type="line" identifier="dzUaaP1sjt"/>
    </contour>
  </outline>
</glyph>
<glyph name="R.alt" format="2">
  <advance width="1790"/>
  <outline>
    <contour>
      <point x="842" y="801" type="line"/>
      <point x="842" y="1598" type="line"/>
      <point x="950" y="1598" type="line"/>
      <point x="950" y="801" type="line"/>
    </contour>
    <contour>
      <point x="1685" y="0" type="line"/>
      <point x="1559" y="801" type="line"/>
      <point x="1680" y="801" type="line"/>
      <point x="1680" y="1600" type="line"/>
      <point x="111" y="1600" type="line"/>
      <point x="111" y="0" type="line"/>
      <point x="842" y="0" type="line"/>
      <point x="842" y="799" type="line"/>
      <point x="928" y="797" type="line"/>
      <point x="1023" y="0" type="line"/>
    </contour>
  </outline>
</glyph>
<glyph name="S.alt" format="2">
  <advance width="1804"/>
  <outline>
    <contour>
      <point x="166" y="0" type="line" identifier="09VlJ0BjUX"/>
      <point x="1639" y="0" type="line" identifier="EagWihqFM8"/>
      <point x="1639" y="801" type="line" identifier="KfNuQA7eZe"/>
      <point x="804" y="801" type="line" identifier="At364YZFEy"/>
      <point x="804" y="1278" type="line"/>
      <point x="869" y="1598" type="line"/>
      <point x="908" y="1598" type="line" identifier="3ZUkG35meB"/>
      <point x="908" y="1344" type="line" identifier="DTOJhFIl15"/>
      <point x="1639" y="1344" type="line" identifier="9KDcrfQ5Ui"/>
      <point x="1639" y="1600" type="line" identifier="SaF9ojRFrW"/>
      <point x="313" y="1600" type="line"/>
      <point x="164" y="1329" type="line"/>
      <point x="164" y="799" type="line" identifier="3sQ8t8BZ6b"/>
      <point x="908" y="799" type="line" identifier="yiV6OCBLHg"/>
      <point x="908" y="2" type="line" identifier="9kdl9SYsn8"/>
      <point x="873" y="2" type="line" identifier="yZDWuX8LLe"/>
      <point x="873" y="243" type="line" identifier="jYb9001DTm"/>
      <point x="166" y="243" type="line" identifier="ho4DrS0rdW"/>
    </contour>
  </outline>
</glyph>
<glyph name="S.wide" format="2">
  <advance width="1596"/>
  <outline>
    <contour>
      <point x="82" y="0" type="line" identifier="09VlJ0BjUX"/>
      <point x="1513" y="0" type="line" identifier="EagWihqFM8"/>
      <point x="1513" y="801" type="line" identifier="KfNuQA7eZe"/>
      <point x="728" y="801" type="line" identifier="At364YZFEy"/>
      <point x="728" y="1278" type="line"/>
      <point x="794" y="1598" type="line"/>
      <point x="1513" y="1598" type="line" identifier="3ZUkG35meB"/>
      <point x="1513" y="1600" type="line" identifier="SaF9ojRFrW"/>
      <point x="238" y="1600" type="line"/>
      <point x="88" y="1329" type="line"/>
      <point x="88" y="799" type="line" identifier="3sQ8t8BZ6b"/>
      <point x="782" y="799" type="line" identifier="yiV6OCBLHg"/>
      <point x="782" y="2" type="line" identifier="9kdl9SYsn8"/>
      <point x="82" y="2" type="line" identifier="yZDWuX8LLe"/>
    </contour>
  </outline>
</glyph>
<glyph name="Y.alt" format="2">
  <advance width="1767"/>
  <outline>
    <contour>
      <point x="111" y="2" type="line"/>
      <point x="111" y="0" type="line"/>
      <point x="1645" y="0" type="line" identifier="oOtn61SmRY"/>
      <point x="1645" y="1600" type="line" identifier="8OglXgblhr"/>
      <point x="915" y="1600" type="line" identifier="db0bPhBdaU"/>
      <point x="915" y="801" type="line" identifier="MTAeavIVWY"/>
      <point x="820" y="801" type="line" identifier="lggLiivmLt"/>
      <point x="820" y="1600" type="line" identifier="UPaHY3UudR"/>
      <point x="90" y="1600" type="line" identifier="ZnCDQVdtyD"/>
      <point x="90" y="799" type="line" identifier="uqAJBjDIOT"/>
      <point x="915" y="799" type="line" identifier="7JgTtdb0jg"/>
      <point x="915" y="2" type="line"/>
    </contour>
  </outline>
</glyph>
<glyph name="Z.wide" format="2">
  <advance width="1619"/>
  <outline>
    <contour>
      <point x="24" y="0" type="line"/>
      <point x="1595" y="0" type="line" identifier="pzdvPTirLJ"/>
      <point x="1595" y="2" type="line"/>
      <point x="754" y="2" type="line"/>
      <point x="754" y="231" type="line"/>
      <point x="1591" y="1564" type="line" identifier="yyb1NCCI5w"/>
      <point x="1591" y="1600" type="line" identifier="5FogYRSgkk"/>
      <point x="27" y="1600" type="line" identifier="svlFvrau4c"/>
      <point x="27" y="1598" type="line"/>
      <point x="860" y="1598" type="line"/>
      <point x="860" y="1564" type="line"/>
      <point x="24" y="234" type="line" identifier="teVKnpBcVb"/>
    </contour>
  </outline>
</glyph>
<glyph name="six.wide" format="2">
  <advance width="1751"/>
  <outline>
    <contour>
      <point x="89" y="0" type="line" identifier="uiw6aBUf4P"/>
      <point x="1661" y="0" type="line" identifier="jtYkxiUX6G"/>
      <point x="1661" y="801" type="line" identifier="2G5L37c87I"/>
      <point x="819" y="801" type="line"/>
      <point x="819" y="1439" type="line"/>
      <point x="864" y="1598" type="line"/>
      <point x="1660" y="1598" type="line"/>
      <point x="1660" y="1600" type="line" identifier="oGvEEuxnYv"/>
      <point x="134" y="1600" type="line" identifier="xR3pEHbMJx"/>
      <point x="89" y="1440" type="line" identifier="KnMArb0tv8"/>
    </contour>
    <contour>
      <point x="930" y="799" type="line"/>
      <point x="930" y="2" type="line"/>
      <point x="819" y="2" type="line"/>
      <point x="819" y="799" type="line"/>
    </contour>
  </outline>
</glyph>
<glyph name="three.wide" format="2">
  <advance width="1691"/>
  <outline>
    <contour>
      <point x="85" y="0" type="line" identifier="O9abUc1nmN"/>
      <point x="1573" y="0" type="line" identifier="kMJYMTfXCq"/>
      <point x="1573" y="810" type="line" identifier="su2XmdS8e8"/>
      <point x="1433" y="810" type="line" identifier="JQaOzDQqlF"/>
      <point x="1433" y="816" type="line"/>
      <point x="1521" y="899" type="line" identifier="S91TzLL02W"/>
      <point x="1521" y="1600" type="line" identifier="xg8x2Ki40p"/>
      <point x="88" y="1600" type="line" identifier="pE1XSRiy68"/>
      <point x="88" y="1598" type="line" identifier="7ogBYufWpl"/>
      <point x="791" y="1598" type="line" identifier="RHLvSX2Jv6"/>
      <point x="791" y="899" type="line" identifier="YUjTrmoWd9"/>
      <point x="710" y="816" type="line"/>
      <point x="710" y="810" type="line" identifier="iic1IBkDqp"/>
      <point x="183" y="810" type="line" identifier="lRLJEhXMlO"/>
      <point x="183" y="808" type="line" identifier="8aKgEELrVU"/>
      <point x="843" y="808" type="line" identifier="Dm8zjmbhNr"/>
      <point x="843" y="2" type="line" identifier="xv9CFHiFgB"/>
      <point x="85" y="2" type="line" identifier="YajKQV3MHP"/>
    </contour>
  </outline>
</glyph>
